<svg xmlns="http://www.w3.org/2000/svg" viewBox="0 0 64 64">
  <circle cx="32" cy="32" r="30" fill="#38532d"/>
  <circle cx="32" cy="32" r="30" fill="none" stroke="#a6bf97" stroke-width="2" opacity="0.6"/>
  <path
    fill="#f4f7f2"
    d="M32 9.5c1.9 0 3.1 1.5 3.3 3.8L36.2 25l17.3 6.8c.6.2 1 .8 1 1.4v3.4c0 .8-.8 1.4-1.6 1.2L36.4 34l-1.5 12.6 6.3 4.4c.4.3.7.8.7 1.3v2.5c0 .8-.8 1.4-1.6 1.2L32 53.6 23.7 56c-.8.2-1.6-.4-1.6-1.2v-2.5c0-.5.3-1 .7-1.3l6.3-4.4L27.6 34l-16.5 3.8c-.8.2-1.6-.4-1.6-1.2v-3.4c0-.6.4-1.2 1-1.4L27.8 25l.9-11.7c.2-2.3 1.4-3.8 3.3-3.8Z"
  />
</svg>
