<svg xmlns="http://www.w3.org/2000/svg" viewBox="0 0 64 64">
  <rect width="64" height="64" rx="12" fill="#060f1c"/>
  <path fill="#1e3a5c" d="M10 38c8-2 14-10 22-12 6-1 12 2 18 0 4-1 6-4 6-4v4c-2 2-6 3-10 4-8 2-14 8-20 10-4 1-8 0-12-2l-4-2v2z"/>
  <path fill="#9c2b2b" d="M44 30h3v2h-3zm0 4h3v1h-3z"/>
  <path fill="#152d4a" d="M12 36c6 4 12 6 20 4 8-2 14-6 20-8 2 4 0 8-4 10-10 5-22 4-32-2-2-1-3-3-4-4z"/>
  <path fill="#eef2f8" d="M18 34c4-1 8-4 14-5 5-1 10 1 15-1 3 2 2 5-1 6-6 2-12 3-18 1-4-1-7-3-10-1z"/>
</svg>
